<svg width="1740" height="650" viewBox="0 0 1740 650" fill="none" xmlns="http://www.w3.org/2000/svg">
<g clip-path="url(#clip0)">
<rect width="1740" height="650" fill="white"/>
<path d="M315 9C141.03 9 0 150.03 0 324C0 497.971 141.031 639 315 639C488.971 639 630 497.97 630 324C630 150.03 488.971 9 315 9ZM67.6856 327.284L311.716 571.314C177.715 569.568 69.4316 461.284 67.6856 327.284ZM370.362 565.131L73.8692 268.638C99.0105 158.682 197.422 76.6442 315 76.6442C397.189 76.6442 470.002 116.74 514.983 178.427L480.734 208.646C444.248 156.321 383.627 122.077 315 122.077C227.624 122.077 153.217 177.577 125.092 255.245L383.755 513.908C446.571 491.161 494.882 438.135 511.063 372.462H403.846V324.001H516.923V323.999H562.356V324C562.356 441.578 480.318 539.99 370.362 565.131Z" fill="#744C9E"/>
<path opacity="0.2" d="M874.143 320.801H906.589V329.004H874.143V364.307H865.28V329.004H833.493V320.801H865.28V286.67H874.143V320.801Z" fill="black"/>
<mask id="mask0" mask-type="alpha" maskUnits="userSpaceOnUse" x="1116" y="7" width="509" height="635">
<path d="M1135.67 591.809L1116.02 67.9548C1115.37 50.6539 1128.63 35.9916 1145.9 34.9117L1591.13 7.06322C1608.7 5.96395 1623.84 19.3309 1624.94 36.9192C1624.98 37.5819 1625 38.2457 1625 38.9096V609.742C1625 627.364 1610.72 641.65 1593.11 641.65C1592.64 641.65 1592.16 641.64 1591.68 641.618L1166.1 622.489C1149.52 621.744 1136.29 608.402 1135.67 591.809Z" fill="white"/>
</mask>
<g mask="url(#mask0)">
<path d="M1135.67 591.809L1116.02 67.9548C1115.37 50.6539 1128.63 35.9916 1145.9 34.9117L1591.13 7.06322C1608.7 5.96395 1623.84 19.3309 1624.94 36.9192C1624.98 37.5819 1625 38.2457 1625 38.9096V609.742C1625 627.364 1610.72 641.65 1593.11 641.65C1592.64 641.65 1592.16 641.64 1591.68 641.618L1166.1 622.489C1149.52 621.744 1136.29 608.402 1135.67 591.809Z" fill="#FF4785"/>
<path d="M1491.86 85.0086L1494.9 11.8079L1556.04 7L1558.68 82.4894C1558.77 85.1166 1556.71 87.3208 1554.09 87.4125C1552.96 87.4518 1551.86 87.0912 1550.98 86.3946L1527.4 67.8056L1499.48 88.9986C1497.39 90.5874 1494.41 90.1774 1492.82 88.083C1492.15 87.2014 1491.81 86.1143 1491.86 85.0086ZM1413.66 246.208C1413.66 258.623 1497.22 252.673 1508.43 243.953C1508.43 159.414 1463.11 114.991 1380.11 114.991C1297.11 114.991 1250.6 160.105 1250.6 227.778C1250.6 345.64 1409.54 347.896 1409.54 412.184C1409.54 430.23 1400.71 440.945 1381.28 440.945C1355.97 440.945 1345.97 428.008 1347.14 384.021C1347.14 374.479 1250.6 371.504 1247.66 384.021C1240.17 490.617 1306.53 521.363 1382.46 521.363C1456.04 521.363 1513.73 482.112 1513.73 411.056C1513.73 284.735 1352.44 288.119 1352.44 225.522C1352.44 200.145 1371.28 196.761 1382.46 196.761C1394.23 196.761 1415.43 198.838 1413.66 246.208Z" fill="white"/>
</g>
</g>
<defs>
<clipPath id="clip0">
<rect width="1740" height="650" fill="white"/>
</clipPath>
</defs>
</svg>
