<svg width="1740" height="650" viewBox="0 0 1740 650" fill="none" xmlns="http://www.w3.org/2000/svg">
<g clip-path="url(#clip0)">
<rect width="1740" height="650" fill="white"/>
<path d="M1164.9 628.219L1135.81 32.881H1114L1135.81 628.219H1164.9Z" fill="#B57EE5"/>
<path d="M1177.02 628.219L1147.93 32.881L1623 -1V650L1177.02 628.219Z" fill="#F1618C"/>
<path d="M1501.81 86.1226L1507.87 5.05011L1564.83 0.209961V86.1226L1536.18 60.252L1501.81 86.1226Z" fill="white"/>
<path d="M1425.8 253.785L1519.45 251.462C1521.78 160.855 1474.66 116.132 1392.64 116.132C1310.62 116.132 1264.66 162.597 1264.66 232.295C1264.66 353.686 1421.73 356.009 1421.73 422.223C1421.73 440.809 1413 451.844 1393.8 451.844C1368.79 451.844 1358.9 435.581 1360.07 390.278H1261.76C1254.19 502.375 1319.93 527.931 1394.97 527.931C1467.68 527.931 1524.69 494.244 1524.69 421.061C1524.69 290.958 1365.3 294.443 1365.3 229.972C1365.3 203.835 1383.92 200.35 1394.97 200.35C1406.6 200.35 1427.54 204.997 1425.8 253.785Z" fill="white"/>
<path d="M315 9C141.03 9 0 150.03 0 324C0 497.971 141.031 639 315 639C488.971 639 630 497.97 630 324C630 150.03 488.971 9 315 9ZM67.6856 327.284L311.716 571.314C177.715 569.568 69.4316 461.284 67.6856 327.284ZM370.362 565.131L73.8692 268.638C99.0105 158.682 197.422 76.6442 315 76.6442C397.189 76.6442 470.002 116.74 514.983 178.427L480.735 208.646C444.248 156.321 383.627 122.077 315 122.077C227.624 122.077 153.217 177.577 125.092 255.245L383.755 513.908C446.571 491.161 494.882 438.135 511.063 372.462H403.846V324.001H516.923V323.999H562.356V324C562.356 441.578 480.318 539.99 370.362 565.131Z" fill="#744C9E"/>
<path opacity="0.2" d="M874.143 320.801H906.589V329.004H874.143V364.307H865.28V329.004H833.493V320.801H865.28V286.67H874.143V320.801Z" fill="black"/>
</g>
<defs>
<clipPath id="clip0">
<rect width="1740" height="650" fill="white"/>
</clipPath>
</defs>
</svg>
